<svg xmlns="http://www.w3.org/2000/svg" width="23.394" height="19" viewBox="0 0 23.39 19"><path d="M20.99 4.73v.62A13.55 13.55 0 0 1 7.37 19 13.55 13.55 0 0 1 0 16.85a9.92 9.92 0 0 0 1.16.06 9.6 9.6 0 0 0 5.95-2.05 4.8 4.8 0 0 1-4.48-3.33 6.05 6.05 0 0 0 .9.07 5.07 5.07 0 0 0 1.26-.16 4.8 4.8 0 0 1-3.84-4.7v-.06a4.83 4.83 0 0 0 2.17.6A4.8 4.8 0 0 1 1.63.88a13.63 13.63 0 0 0 9.89 5.02 5.41 5.41 0 0 1-.12-1.1 4.8 4.8 0 0 1 8.3-3.28A9.44 9.44 0 0 0 22.74.36 4.78 4.78 0 0 1 20.64 3a9.61 9.61 0 0 0 2.76-.74A10.3 10.3 0 0 1 21 4.74z" fill="#60605f"/></svg>