<svg width="20" height="20" viewBox="0 0 20 20" fill="none" xmlns="http://www.w3.org/2000/svg">
<path d="M5.83333 7.50833L5.84167 7.49917M9.16667 7.50833L9.175 7.49917M5.83333 10.8417L5.84167 10.8325M9.16667 10.8417L9.175 10.8325M5.83333 14.175L5.84167 14.1658M9.16667 14.175L9.175 14.1658M12.5 17.5H3C2.86739 17.5 2.74021 17.4473 2.64645 17.3536C2.55268 17.2598 2.5 17.1326 2.5 17V4.66667C2.5 4.53406 2.55268 4.40688 2.64645 4.31311C2.74021 4.21935 2.86739 4.16667 3 4.16667H7.5V3C7.5 2.86739 7.55268 2.74021 7.64645 2.64645C7.74021 2.55268 7.86739 2.5 8 2.5H12C12.1326 2.5 12.2598 2.55268 12.3536 2.64645C12.4473 2.74021 12.5 2.86739 12.5 3V7.5M12.5 17.5H17C17.1326 17.5 17.2598 17.4473 17.3536 17.3536C17.4473 17.2598 17.5 17.1326 17.5 17V8C17.5 7.86739 17.4473 7.74021 17.3536 7.64645C17.2598 7.55268 17.1326 7.5 17 7.5H12.5M12.5 17.5V14.1667M12.5 7.5V10.8333M12.5 14.1667V10.8333M12.5 14.1667H14.1667M12.5 10.8333H14.1667" stroke="#1B38A0" stroke-width="1.5" stroke-linecap="round" stroke-linejoin="round"/>
</svg>
