<svg width="20" height="20" viewBox="0 0 20 20" fill="none" xmlns="http://www.w3.org/2000/svg">
<g clip-path="url(#clip0_6_134)">
<path d="M18.3334 9.99999C18.3334 5.39749 14.6025 1.66666 10 1.66666C5.39752 1.66666 1.66669 5.39749 1.66669 9.99999C1.66669 14.6025 5.39752 18.3333 10 18.3333" stroke="#1B38A0" stroke-width="1.5" stroke-linecap="round" stroke-linejoin="round"/>
<path d="M10.8333 1.70834C10.8333 1.70834 13.3333 5.00001 13.3333 10M9.16665 18.2917C9.16665 18.2917 6.66665 15 6.66665 10C6.66665 5.00001 9.16665 1.70834 9.16665 1.70834M2.19165 12.9167H9.99998M2.19165 7.08334H17.8083" stroke="#1B38A0" stroke-width="1.5" stroke-linecap="round" stroke-linejoin="round"/>
<path d="M18.2325 14.9308C18.6441 15.1842 18.6183 15.8 18.195 15.8483L16.0558 16.0908L15.0966 18.0175C14.9066 18.4 14.3191 18.2125 14.2216 17.7392L13.1758 12.6425C13.0933 12.2425 13.4533 11.9908 13.8008 12.205L18.2325 14.9308Z" stroke="#1B38A0" stroke-width="1.5"/>
</g>
<defs>
<clipPath id="clip0_6_134">
<rect width="20" height="20" fill="white"/>
</clipPath>
</defs>
</svg>
