<svg width="25" height="24" viewBox="0 0 25 24" fill="none" xmlns="http://www.w3.org/2000/svg">
<g clip-path="url(#clip0_23_20)">
<path d="M9.5 9L14 12L18.5 9M3.5 13.5H5.5M1.5 10.5H5.5" stroke="#1B38A0" stroke-width="1.5" stroke-linecap="round" stroke-linejoin="round"/>
<path d="M5.5 7.5V7C5.5 6.46957 5.71071 5.96086 6.08579 5.58579C6.46086 5.21071 6.96957 5 7.5 5H20.5C21.0304 5 21.5391 5.21071 21.9142 5.58579C22.2893 5.96086 22.5 6.46957 22.5 7V17C22.5 17.5304 22.2893 18.0391 21.9142 18.4142C21.5391 18.7893 21.0304 19 20.5 19H7.5C6.96957 19 6.46086 18.7893 6.08579 18.4142C5.71071 18.0391 5.5 17.5304 5.5 17V16.5" stroke="#1B38A0" stroke-width="1.5" stroke-linecap="round"/>
</g>
<defs>
<clipPath id="clip0_23_20">
<rect width="24" height="24" fill="white" transform="translate(0.5)"/>
</clipPath>
</defs>
</svg>
