<svg width="20" height="20" viewBox="0 0 20 20" fill="none" xmlns="http://www.w3.org/2000/svg">
<path d="M16.6667 8.33332C16.6667 12.015 10 18.3333 10 18.3333C10 18.3333 3.33334 12.015 3.33334 8.33332C3.33334 6.56521 4.03572 4.86952 5.28596 3.61928C6.53621 2.36904 8.2319 1.66666 10 1.66666C11.7681 1.66666 13.4638 2.36904 14.7141 3.61928C15.9643 4.86952 16.6667 6.56521 16.6667 8.33332Z" stroke="#1B38A0" stroke-width="1.5"/>
<path d="M9.99999 9.16667C10.221 9.16667 10.433 9.07887 10.5892 8.92259C10.7455 8.76631 10.8333 8.55435 10.8333 8.33333C10.8333 8.11232 10.7455 7.90036 10.5892 7.74408C10.433 7.5878 10.221 7.5 9.99999 7.5C9.77898 7.5 9.56701 7.5878 9.41073 7.74408C9.25445 7.90036 9.16666 8.11232 9.16666 8.33333C9.16666 8.55435 9.25445 8.76631 9.41073 8.92259C9.56701 9.07887 9.77898 9.16667 9.99999 9.16667Z" fill="#1B38A0" stroke="#1B38A0" stroke-width="1.5" stroke-linecap="round" stroke-linejoin="round"/>
</svg>
